<mxfile host="app.diagrams.net" modified="2023-09-21T19:19:35.449Z" agent="Mozilla/5.0 (X11; Linux x86_64; rv:109.0) Gecko/20100101 Firefox/114.0" etag="twAv06PBZ7_xo8Y5LdCL" version="21.8.0" type="github">
  <diagram name="Página-1" id="nMgolZXD_CfGPn-2OGdc">
    <mxGraphModel dx="2261" dy="4302" grid="1" gridSize="10" guides="1" tooltips="1" connect="1" arrows="1" fold="1" page="1" pageScale="1" pageWidth="827" pageHeight="1169" math="0" shadow="0">
      <root>
        <mxCell id="0" />
        <mxCell id="1" parent="0" />
        <mxCell id="vaaJ42ECIvBjuGSLMHqS-1" value="&lt;p&gt;&lt;b&gt;&lt;span lang=&quot;ES-TRAD&quot;&gt;EJERCICIO 1&lt;/span&gt;&lt;/b&gt;&lt;/p&gt;&#xa;&#xa;&lt;p&gt;&lt;span lang=&quot;ES-TRAD&quot;&gt;A partir del siguiente enunciado se&#xa;desea realizar el modelo entidad-relación.&lt;/span&gt;&lt;/p&gt;&#xa;&#xa;&lt;p&gt;&lt;i&gt;&lt;span lang=&quot;ES-TRAD&quot;&gt;“Se desea informatizar la gestión de una empresa de reparto de&#xa;mercancías que reparte paquetes por toda la isla. Los encargados de llevar los&#xa;paquetes son los camioneros, de los que se quiere guardar el dni, nombre,&#xa;teléfono, dirección, salario y población en la que vive. De los paquetes&#xa;transportados interesa conocer el código de paquete, descripción, destinatario&#xa;y dirección del destinatario. Un camionero distribuye muchos paquetes, y un&#xa;paquete sólo puede ser distribuido por un camionero.&lt;/span&gt;&lt;/i&gt;&lt;/p&gt;&#xa;&#xa;&lt;p&gt;&lt;i&gt;&lt;span lang=&quot;ES-TRAD&quot;&gt;De los camiones que llevan los&#xa;camioneros, interesa conocer la matrícula, modelo, tipo y potencia. Un&#xa;camionero puede conducir diferentes camiones en fechas diferentes, y un camión&#xa;puede ser conducido por varios camioneros”.&lt;/span&gt;&lt;/i&gt;&lt;i&gt;&lt;/i&gt;&lt;/p&gt;&#xa;&#xa;&lt;p&gt;&lt;b&gt;&lt;span lang=&quot;ES-TRAD&quot;&gt;&lt;/span&gt;&lt;/b&gt;&lt;/p&gt;" style="text;html=1;strokeColor=none;fillColor=none;align=center;verticalAlign=middle;whiteSpace=wrap;rounded=0;" vertex="1" parent="1">
          <mxGeometry x="-170" y="-2510" width="500" height="460" as="geometry" />
        </mxCell>
        <mxCell id="vaaJ42ECIvBjuGSLMHqS-2" value="Paquetes" style="rounded=0;whiteSpace=wrap;html=1;" vertex="1" parent="1">
          <mxGeometry x="1020" y="-2260" width="120" height="60" as="geometry" />
        </mxCell>
        <mxCell id="vaaJ42ECIvBjuGSLMHqS-7" style="edgeStyle=orthogonalEdgeStyle;rounded=0;orthogonalLoop=1;jettySize=auto;html=1;entryX=0;entryY=0.5;entryDx=0;entryDy=0;endArrow=none;endFill=0;" edge="1" parent="1" source="vaaJ42ECIvBjuGSLMHqS-3" target="vaaJ42ECIvBjuGSLMHqS-5">
          <mxGeometry relative="1" as="geometry" />
        </mxCell>
        <mxCell id="vaaJ42ECIvBjuGSLMHqS-3" value="Camioneros" style="rounded=0;whiteSpace=wrap;html=1;" vertex="1" parent="1">
          <mxGeometry x="460" y="-2260" width="120" height="60" as="geometry" />
        </mxCell>
        <mxCell id="vaaJ42ECIvBjuGSLMHqS-5" value="conducen" style="rhombus;whiteSpace=wrap;html=1;" vertex="1" parent="1">
          <mxGeometry x="630" y="-2270" width="80" height="80" as="geometry" />
        </mxCell>
        <mxCell id="vaaJ42ECIvBjuGSLMHqS-9" value="telefono" style="ellipse;whiteSpace=wrap;html=1;" vertex="1" parent="1">
          <mxGeometry x="339" y="-2160" width="80" height="50" as="geometry" />
        </mxCell>
        <mxCell id="vaaJ42ECIvBjuGSLMHqS-10" value="nombre" style="ellipse;whiteSpace=wrap;html=1;" vertex="1" parent="1">
          <mxGeometry x="344" y="-2270" width="70" height="40" as="geometry" />
        </mxCell>
        <mxCell id="vaaJ42ECIvBjuGSLMHqS-11" value="dni" style="ellipse;whiteSpace=wrap;html=1;" vertex="1" parent="1">
          <mxGeometry x="344" y="-2320" width="70" height="40" as="geometry" />
        </mxCell>
        <mxCell id="vaaJ42ECIvBjuGSLMHqS-12" value="dirección" style="ellipse;whiteSpace=wrap;html=1;" vertex="1" parent="1">
          <mxGeometry x="334" y="-2220" width="90" height="50" as="geometry" />
        </mxCell>
        <mxCell id="vaaJ42ECIvBjuGSLMHqS-13" value="población" style="ellipse;whiteSpace=wrap;html=1;" vertex="1" parent="1">
          <mxGeometry x="430" y="-2325" width="80" height="50" as="geometry" />
        </mxCell>
        <mxCell id="vaaJ42ECIvBjuGSLMHqS-14" value="" style="endArrow=none;html=1;rounded=0;entryX=1;entryY=0.5;entryDx=0;entryDy=0;exitX=0.083;exitY=1.033;exitDx=0;exitDy=0;exitPerimeter=0;" edge="1" parent="1" source="vaaJ42ECIvBjuGSLMHqS-3" target="vaaJ42ECIvBjuGSLMHqS-9">
          <mxGeometry width="50" height="50" relative="1" as="geometry">
            <mxPoint x="390" y="-2130" as="sourcePoint" />
            <mxPoint x="440" y="-2180" as="targetPoint" />
          </mxGeometry>
        </mxCell>
        <mxCell id="vaaJ42ECIvBjuGSLMHqS-15" value="" style="endArrow=none;html=1;rounded=0;entryX=1;entryY=0.5;entryDx=0;entryDy=0;exitX=0;exitY=0.833;exitDx=0;exitDy=0;exitPerimeter=0;" edge="1" parent="1" source="vaaJ42ECIvBjuGSLMHqS-3" target="vaaJ42ECIvBjuGSLMHqS-12">
          <mxGeometry width="50" height="50" relative="1" as="geometry">
            <mxPoint x="390" y="-2130" as="sourcePoint" />
            <mxPoint x="440" y="-2180" as="targetPoint" />
          </mxGeometry>
        </mxCell>
        <mxCell id="vaaJ42ECIvBjuGSLMHqS-16" value="" style="endArrow=none;html=1;rounded=0;entryX=1;entryY=0.5;entryDx=0;entryDy=0;" edge="1" parent="1" target="vaaJ42ECIvBjuGSLMHqS-10">
          <mxGeometry width="50" height="50" relative="1" as="geometry">
            <mxPoint x="460" y="-2220" as="sourcePoint" />
            <mxPoint x="440" y="-2180" as="targetPoint" />
          </mxGeometry>
        </mxCell>
        <mxCell id="vaaJ42ECIvBjuGSLMHqS-17" value="" style="endArrow=none;html=1;rounded=0;entryX=1;entryY=1;entryDx=0;entryDy=0;exitX=0;exitY=0.25;exitDx=0;exitDy=0;" edge="1" parent="1" source="vaaJ42ECIvBjuGSLMHqS-3" target="vaaJ42ECIvBjuGSLMHqS-11">
          <mxGeometry width="50" height="50" relative="1" as="geometry">
            <mxPoint x="390" y="-2130" as="sourcePoint" />
            <mxPoint x="440" y="-2180" as="targetPoint" />
          </mxGeometry>
        </mxCell>
        <mxCell id="vaaJ42ECIvBjuGSLMHqS-18" value="" style="endArrow=none;html=1;rounded=0;entryX=0.5;entryY=1;entryDx=0;entryDy=0;" edge="1" parent="1" source="vaaJ42ECIvBjuGSLMHqS-3" target="vaaJ42ECIvBjuGSLMHqS-13">
          <mxGeometry width="50" height="50" relative="1" as="geometry">
            <mxPoint x="390" y="-2130" as="sourcePoint" />
            <mxPoint x="440" y="-2180" as="targetPoint" />
          </mxGeometry>
        </mxCell>
        <mxCell id="vaaJ42ECIvBjuGSLMHqS-19" value="dirección" style="ellipse;whiteSpace=wrap;html=1;" vertex="1" parent="1">
          <mxGeometry x="1170" y="-2160" width="90" height="50" as="geometry" />
        </mxCell>
        <mxCell id="vaaJ42ECIvBjuGSLMHqS-20" value="destinatario" style="ellipse;whiteSpace=wrap;html=1;" vertex="1" parent="1">
          <mxGeometry x="1170" y="-2220" width="90" height="50" as="geometry" />
        </mxCell>
        <mxCell id="vaaJ42ECIvBjuGSLMHqS-21" value="descripción" style="ellipse;whiteSpace=wrap;html=1;" vertex="1" parent="1">
          <mxGeometry x="1170" y="-2338" width="90" height="50" as="geometry" />
        </mxCell>
        <mxCell id="vaaJ42ECIvBjuGSLMHqS-22" value="código" style="ellipse;whiteSpace=wrap;html=1;" vertex="1" parent="1">
          <mxGeometry x="1175" y="-2280" width="80" height="50" as="geometry" />
        </mxCell>
        <mxCell id="vaaJ42ECIvBjuGSLMHqS-23" value="" style="endArrow=none;html=1;rounded=0;entryX=0;entryY=0;entryDx=0;entryDy=0;exitX=0.892;exitY=1.033;exitDx=0;exitDy=0;exitPerimeter=0;" edge="1" parent="1" source="vaaJ42ECIvBjuGSLMHqS-2" target="vaaJ42ECIvBjuGSLMHqS-19">
          <mxGeometry width="50" height="50" relative="1" as="geometry">
            <mxPoint x="630" y="-2220" as="sourcePoint" />
            <mxPoint x="680" y="-2270" as="targetPoint" />
          </mxGeometry>
        </mxCell>
        <mxCell id="vaaJ42ECIvBjuGSLMHqS-24" value="" style="endArrow=none;html=1;rounded=0;entryX=0;entryY=0.5;entryDx=0;entryDy=0;exitX=1;exitY=0.75;exitDx=0;exitDy=0;" edge="1" parent="1" source="vaaJ42ECIvBjuGSLMHqS-2" target="vaaJ42ECIvBjuGSLMHqS-20">
          <mxGeometry width="50" height="50" relative="1" as="geometry">
            <mxPoint x="630" y="-2220" as="sourcePoint" />
            <mxPoint x="680" y="-2270" as="targetPoint" />
          </mxGeometry>
        </mxCell>
        <mxCell id="vaaJ42ECIvBjuGSLMHqS-25" value="" style="endArrow=none;html=1;rounded=0;entryX=0.038;entryY=0.66;entryDx=0;entryDy=0;entryPerimeter=0;exitX=1;exitY=0.25;exitDx=0;exitDy=0;" edge="1" parent="1" source="vaaJ42ECIvBjuGSLMHqS-2" target="vaaJ42ECIvBjuGSLMHqS-22">
          <mxGeometry width="50" height="50" relative="1" as="geometry">
            <mxPoint x="630" y="-2220" as="sourcePoint" />
            <mxPoint x="680" y="-2270" as="targetPoint" />
          </mxGeometry>
        </mxCell>
        <mxCell id="vaaJ42ECIvBjuGSLMHqS-26" value="" style="endArrow=none;html=1;rounded=0;entryX=0.056;entryY=0.8;entryDx=0;entryDy=0;entryPerimeter=0;exitX=0.875;exitY=0.017;exitDx=0;exitDy=0;exitPerimeter=0;" edge="1" parent="1" source="vaaJ42ECIvBjuGSLMHqS-2" target="vaaJ42ECIvBjuGSLMHqS-21">
          <mxGeometry width="50" height="50" relative="1" as="geometry">
            <mxPoint x="630" y="-2220" as="sourcePoint" />
            <mxPoint x="680" y="-2270" as="targetPoint" />
          </mxGeometry>
        </mxCell>
        <mxCell id="vaaJ42ECIvBjuGSLMHqS-31" style="edgeStyle=orthogonalEdgeStyle;rounded=0;orthogonalLoop=1;jettySize=auto;html=1;entryX=0;entryY=0.5;entryDx=0;entryDy=0;endArrow=none;endFill=0;" edge="1" parent="1" source="vaaJ42ECIvBjuGSLMHqS-28" target="vaaJ42ECIvBjuGSLMHqS-30">
          <mxGeometry relative="1" as="geometry" />
        </mxCell>
        <mxCell id="vaaJ42ECIvBjuGSLMHqS-28" value="Camiones" style="rounded=0;whiteSpace=wrap;html=1;" vertex="1" parent="1">
          <mxGeometry x="750" y="-2260" width="120" height="60" as="geometry" />
        </mxCell>
        <mxCell id="vaaJ42ECIvBjuGSLMHqS-29" value="" style="endArrow=none;html=1;rounded=0;entryX=0;entryY=0.5;entryDx=0;entryDy=0;exitX=1;exitY=0.5;exitDx=0;exitDy=0;" edge="1" parent="1" source="vaaJ42ECIvBjuGSLMHqS-5" target="vaaJ42ECIvBjuGSLMHqS-28">
          <mxGeometry width="50" height="50" relative="1" as="geometry">
            <mxPoint x="500" y="-2220" as="sourcePoint" />
            <mxPoint x="550" y="-2270" as="targetPoint" />
          </mxGeometry>
        </mxCell>
        <mxCell id="vaaJ42ECIvBjuGSLMHqS-32" style="edgeStyle=orthogonalEdgeStyle;rounded=0;orthogonalLoop=1;jettySize=auto;html=1;endArrow=none;endFill=0;" edge="1" parent="1" source="vaaJ42ECIvBjuGSLMHqS-30" target="vaaJ42ECIvBjuGSLMHqS-2">
          <mxGeometry relative="1" as="geometry" />
        </mxCell>
        <mxCell id="vaaJ42ECIvBjuGSLMHqS-30" value="llevan" style="rhombus;whiteSpace=wrap;html=1;" vertex="1" parent="1">
          <mxGeometry x="900" y="-2270" width="80" height="80" as="geometry" />
        </mxCell>
        <mxCell id="vaaJ42ECIvBjuGSLMHqS-33" value="potencia" style="ellipse;whiteSpace=wrap;html=1;" vertex="1" parent="1">
          <mxGeometry x="895" y="-2120" width="80" height="50" as="geometry" />
        </mxCell>
        <mxCell id="vaaJ42ECIvBjuGSLMHqS-34" value="tipo" style="ellipse;whiteSpace=wrap;html=1;" vertex="1" parent="1">
          <mxGeometry x="645" y="-2115" width="80" height="40" as="geometry" />
        </mxCell>
        <mxCell id="vaaJ42ECIvBjuGSLMHqS-35" value="modelo" style="ellipse;whiteSpace=wrap;html=1;" vertex="1" parent="1">
          <mxGeometry x="725" y="-2120" width="90" height="50" as="geometry" />
        </mxCell>
        <mxCell id="vaaJ42ECIvBjuGSLMHqS-36" value="matricula" style="ellipse;whiteSpace=wrap;html=1;" vertex="1" parent="1">
          <mxGeometry x="815" y="-2120" width="80" height="50" as="geometry" />
        </mxCell>
        <mxCell id="vaaJ42ECIvBjuGSLMHqS-37" value="" style="endArrow=none;html=1;rounded=0;entryX=0.5;entryY=0;entryDx=0;entryDy=0;exitX=0.9;exitY=1.017;exitDx=0;exitDy=0;exitPerimeter=0;" edge="1" parent="1" source="vaaJ42ECIvBjuGSLMHqS-28" target="vaaJ42ECIvBjuGSLMHqS-33">
          <mxGeometry width="50" height="50" relative="1" as="geometry">
            <mxPoint x="500" y="-2220" as="sourcePoint" />
            <mxPoint x="550" y="-2270" as="targetPoint" />
          </mxGeometry>
        </mxCell>
        <mxCell id="vaaJ42ECIvBjuGSLMHqS-38" value="" style="endArrow=none;html=1;rounded=0;entryX=0.5;entryY=0;entryDx=0;entryDy=0;exitX=0.667;exitY=1;exitDx=0;exitDy=0;exitPerimeter=0;" edge="1" parent="1" source="vaaJ42ECIvBjuGSLMHqS-28" target="vaaJ42ECIvBjuGSLMHqS-36">
          <mxGeometry width="50" height="50" relative="1" as="geometry">
            <mxPoint x="500" y="-2220" as="sourcePoint" />
            <mxPoint x="550" y="-2270" as="targetPoint" />
          </mxGeometry>
        </mxCell>
        <mxCell id="vaaJ42ECIvBjuGSLMHqS-39" value="" style="endArrow=none;html=1;rounded=0;entryX=0.5;entryY=0;entryDx=0;entryDy=0;exitX=0.342;exitY=1.033;exitDx=0;exitDy=0;exitPerimeter=0;" edge="1" parent="1" source="vaaJ42ECIvBjuGSLMHqS-28" target="vaaJ42ECIvBjuGSLMHqS-35">
          <mxGeometry width="50" height="50" relative="1" as="geometry">
            <mxPoint x="500" y="-2220" as="sourcePoint" />
            <mxPoint x="550" y="-2270" as="targetPoint" />
          </mxGeometry>
        </mxCell>
        <mxCell id="vaaJ42ECIvBjuGSLMHqS-40" value="" style="endArrow=none;html=1;rounded=0;exitX=0.5;exitY=0;exitDx=0;exitDy=0;" edge="1" parent="1" source="vaaJ42ECIvBjuGSLMHqS-34">
          <mxGeometry width="50" height="50" relative="1" as="geometry">
            <mxPoint x="500" y="-2220" as="sourcePoint" />
            <mxPoint x="760" y="-2200" as="targetPoint" />
          </mxGeometry>
        </mxCell>
        <mxCell id="vaaJ42ECIvBjuGSLMHqS-41" value="0:n" style="text;html=1;align=center;verticalAlign=middle;resizable=0;points=[];autosize=1;strokeColor=none;fillColor=none;" vertex="1" parent="1">
          <mxGeometry x="700" y="-2275" width="40" height="30" as="geometry" />
        </mxCell>
        <mxCell id="vaaJ42ECIvBjuGSLMHqS-42" value="0:n" style="text;html=1;align=center;verticalAlign=middle;resizable=0;points=[];autosize=1;strokeColor=none;fillColor=none;" vertex="1" parent="1">
          <mxGeometry x="590" y="-2280" width="40" height="30" as="geometry" />
        </mxCell>
        <mxCell id="vaaJ42ECIvBjuGSLMHqS-43" value="0:n" style="text;html=1;align=center;verticalAlign=middle;resizable=0;points=[];autosize=1;strokeColor=none;fillColor=none;" vertex="1" parent="1">
          <mxGeometry x="650" y="-2305" width="40" height="30" as="geometry" />
        </mxCell>
        <mxCell id="vaaJ42ECIvBjuGSLMHqS-44" value="0:n" style="text;html=1;align=center;verticalAlign=middle;resizable=0;points=[];autosize=1;strokeColor=none;fillColor=none;" vertex="1" parent="1">
          <mxGeometry x="980" y="-2280" width="40" height="30" as="geometry" />
        </mxCell>
        <mxCell id="vaaJ42ECIvBjuGSLMHqS-45" value="0:n" style="text;html=1;align=center;verticalAlign=middle;resizable=0;points=[];autosize=1;strokeColor=none;fillColor=none;" vertex="1" parent="1">
          <mxGeometry x="880" y="-2280" width="40" height="30" as="geometry" />
        </mxCell>
        <mxCell id="vaaJ42ECIvBjuGSLMHqS-46" value="0:n" style="text;html=1;align=center;verticalAlign=middle;resizable=0;points=[];autosize=1;strokeColor=none;fillColor=none;" vertex="1" parent="1">
          <mxGeometry x="915" y="-2305" width="40" height="30" as="geometry" />
        </mxCell>
        <mxCell id="vaaJ42ECIvBjuGSLMHqS-47" value="&lt;p&gt;&lt;b&gt;EJERCICIO 2&lt;/b&gt;&lt;/p&gt;&lt;br/&gt;&lt;br/&gt;&lt;p&gt;&lt;span lang=&quot;ES-TRAD&quot;&gt;A partir del siguiente enunciado diseñar&lt;br/&gt;el modelo entidad-relación.&lt;/span&gt;&lt;/p&gt;&lt;br/&gt;&lt;br/&gt;&lt;p&gt;&lt;i&gt;&lt;span lang=&quot;ES-TRAD&quot;&gt;“Se desea&lt;br/&gt;diseñar la base de datos de un Instituto. En la base de datos se desea guardar&lt;br/&gt;los datos de los profesores del Instituto (DNI, nombre, dirección y teléfono).&lt;br/&gt;Los profesores imparten módulos, y cada módulo tiene un código y un nombre.&lt;br/&gt;Cada alumno está matriculado en uno o varios módulos. De cada alumno se desea&lt;br/&gt;guardar el nº de expediente, nombre, apellidos y fecha de nacimiento. Los&lt;br/&gt;profesores pueden impartir varios módulos, pero un módulo sólo puede ser&lt;br/&gt;impartido por un profesor. Cada curso tiene un grupo de alumnos, uno de los&lt;br/&gt;cuales es el delegado del grupo”.&lt;/span&gt;&lt;/i&gt;&lt;/p&gt;" style="text;html=1;strokeColor=none;fillColor=none;align=center;verticalAlign=middle;whiteSpace=wrap;rounded=0;" vertex="1" parent="1">
          <mxGeometry x="-190" y="-1970" width="540" height="310" as="geometry" />
        </mxCell>
        <mxCell id="vaaJ42ECIvBjuGSLMHqS-104" style="edgeStyle=orthogonalEdgeStyle;rounded=0;orthogonalLoop=1;jettySize=auto;html=1;entryX=0.5;entryY=0;entryDx=0;entryDy=0;endArrow=none;endFill=0;" edge="1" parent="1" source="vaaJ42ECIvBjuGSLMHqS-49" target="vaaJ42ECIvBjuGSLMHqS-100">
          <mxGeometry relative="1" as="geometry" />
        </mxCell>
        <mxCell id="vaaJ42ECIvBjuGSLMHqS-106" style="edgeStyle=orthogonalEdgeStyle;rounded=0;orthogonalLoop=1;jettySize=auto;html=1;entryX=1;entryY=0.5;entryDx=0;entryDy=0;endArrow=none;endFill=0;" edge="1" parent="1" source="vaaJ42ECIvBjuGSLMHqS-49" target="vaaJ42ECIvBjuGSLMHqS-100">
          <mxGeometry relative="1" as="geometry">
            <Array as="points">
              <mxPoint x="1060" y="-1540" />
            </Array>
          </mxGeometry>
        </mxCell>
        <mxCell id="vaaJ42ECIvBjuGSLMHqS-49" value="Alumnos" style="rounded=0;whiteSpace=wrap;html=1;" vertex="1" parent="1">
          <mxGeometry x="1000" y="-1682" width="120" height="60" as="geometry" />
        </mxCell>
        <mxCell id="vaaJ42ECIvBjuGSLMHqS-55" style="edgeStyle=orthogonalEdgeStyle;rounded=0;orthogonalLoop=1;jettySize=auto;html=1;entryX=0;entryY=0.5;entryDx=0;entryDy=0;endArrow=none;endFill=0;" edge="1" parent="1" source="vaaJ42ECIvBjuGSLMHqS-50" target="vaaJ42ECIvBjuGSLMHqS-54">
          <mxGeometry relative="1" as="geometry" />
        </mxCell>
        <mxCell id="vaaJ42ECIvBjuGSLMHqS-50" value="Profesores" style="rounded=0;whiteSpace=wrap;html=1;" vertex="1" parent="1">
          <mxGeometry x="440" y="-1890" width="120" height="60" as="geometry" />
        </mxCell>
        <mxCell id="vaaJ42ECIvBjuGSLMHqS-91" style="edgeStyle=orthogonalEdgeStyle;rounded=0;orthogonalLoop=1;jettySize=auto;html=1;entryX=0;entryY=0.5;entryDx=0;entryDy=0;endArrow=none;endFill=0;" edge="1" parent="1" source="vaaJ42ECIvBjuGSLMHqS-52" target="vaaJ42ECIvBjuGSLMHqS-90">
          <mxGeometry relative="1" as="geometry" />
        </mxCell>
        <mxCell id="vaaJ42ECIvBjuGSLMHqS-52" value="Módulos" style="rounded=0;whiteSpace=wrap;html=1;" vertex="1" parent="1">
          <mxGeometry x="730" y="-1890" width="120" height="60" as="geometry" />
        </mxCell>
        <mxCell id="vaaJ42ECIvBjuGSLMHqS-98" style="edgeStyle=orthogonalEdgeStyle;rounded=0;orthogonalLoop=1;jettySize=auto;html=1;endArrow=none;endFill=0;" edge="1" parent="1" source="vaaJ42ECIvBjuGSLMHqS-53" target="vaaJ42ECIvBjuGSLMHqS-49">
          <mxGeometry relative="1" as="geometry" />
        </mxCell>
        <mxCell id="vaaJ42ECIvBjuGSLMHqS-53" value="pertenecen" style="rhombus;whiteSpace=wrap;html=1;" vertex="1" parent="1">
          <mxGeometry x="1020" y="-1797" width="80" height="80" as="geometry" />
        </mxCell>
        <mxCell id="vaaJ42ECIvBjuGSLMHqS-56" style="edgeStyle=orthogonalEdgeStyle;rounded=0;orthogonalLoop=1;jettySize=auto;html=1;entryX=0;entryY=0.5;entryDx=0;entryDy=0;endArrow=none;endFill=0;" edge="1" parent="1" source="vaaJ42ECIvBjuGSLMHqS-54" target="vaaJ42ECIvBjuGSLMHqS-52">
          <mxGeometry relative="1" as="geometry" />
        </mxCell>
        <mxCell id="vaaJ42ECIvBjuGSLMHqS-54" value="imparten" style="rhombus;whiteSpace=wrap;html=1;" vertex="1" parent="1">
          <mxGeometry x="610" y="-1900" width="80" height="80" as="geometry" />
        </mxCell>
        <mxCell id="vaaJ42ECIvBjuGSLMHqS-59" value="1:n" style="text;html=1;align=center;verticalAlign=middle;resizable=0;points=[];autosize=1;strokeColor=none;fillColor=none;" vertex="1" parent="1">
          <mxGeometry x="560" y="-1920" width="40" height="30" as="geometry" />
        </mxCell>
        <mxCell id="vaaJ42ECIvBjuGSLMHqS-60" value="1:1" style="text;html=1;align=center;verticalAlign=middle;resizable=0;points=[];autosize=1;strokeColor=none;fillColor=none;" vertex="1" parent="1">
          <mxGeometry x="685" y="-1920" width="40" height="30" as="geometry" />
        </mxCell>
        <mxCell id="vaaJ42ECIvBjuGSLMHqS-61" value="1:n" style="text;html=1;align=center;verticalAlign=middle;resizable=0;points=[];autosize=1;strokeColor=none;fillColor=none;" vertex="1" parent="1">
          <mxGeometry x="630" y="-1932" width="40" height="30" as="geometry" />
        </mxCell>
        <mxCell id="vaaJ42ECIvBjuGSLMHqS-62" value="1:n" style="text;html=1;align=center;verticalAlign=middle;resizable=0;points=[];autosize=1;strokeColor=none;fillColor=none;" vertex="1" parent="1">
          <mxGeometry x="1080" y="-1820" width="40" height="30" as="geometry" />
        </mxCell>
        <mxCell id="vaaJ42ECIvBjuGSLMHqS-64" value="1:n" style="text;html=1;align=center;verticalAlign=middle;resizable=0;points=[];autosize=1;strokeColor=none;fillColor=none;" vertex="1" parent="1">
          <mxGeometry x="1080" y="-1717" width="40" height="30" as="geometry" />
        </mxCell>
        <mxCell id="vaaJ42ECIvBjuGSLMHqS-65" value="dirección" style="ellipse;whiteSpace=wrap;html=1;" vertex="1" parent="1">
          <mxGeometry x="334" y="-1885" width="90" height="50" as="geometry" />
        </mxCell>
        <mxCell id="vaaJ42ECIvBjuGSLMHqS-66" value="telefono" style="ellipse;whiteSpace=wrap;html=1;" vertex="1" parent="1">
          <mxGeometry x="339" y="-1942" width="80" height="50" as="geometry" />
        </mxCell>
        <mxCell id="vaaJ42ECIvBjuGSLMHqS-67" value="nombre" style="ellipse;whiteSpace=wrap;html=1;" vertex="1" parent="1">
          <mxGeometry x="344" y="-1820" width="70" height="40" as="geometry" />
        </mxCell>
        <mxCell id="vaaJ42ECIvBjuGSLMHqS-68" value="dni" style="ellipse;whiteSpace=wrap;html=1;" vertex="1" parent="1">
          <mxGeometry x="344" y="-1990" width="70" height="40" as="geometry" />
        </mxCell>
        <mxCell id="vaaJ42ECIvBjuGSLMHqS-69" value="" style="endArrow=none;html=1;rounded=0;exitX=0.971;exitY=0.225;exitDx=0;exitDy=0;exitPerimeter=0;entryX=0;entryY=1;entryDx=0;entryDy=0;" edge="1" parent="1" source="vaaJ42ECIvBjuGSLMHqS-67" target="vaaJ42ECIvBjuGSLMHqS-50">
          <mxGeometry width="50" height="50" relative="1" as="geometry">
            <mxPoint x="500" y="-1890" as="sourcePoint" />
            <mxPoint x="550" y="-1940" as="targetPoint" />
          </mxGeometry>
        </mxCell>
        <mxCell id="vaaJ42ECIvBjuGSLMHqS-70" value="" style="endArrow=none;html=1;rounded=0;entryX=1;entryY=0.5;entryDx=0;entryDy=0;exitX=0.008;exitY=0.65;exitDx=0;exitDy=0;exitPerimeter=0;" edge="1" parent="1" source="vaaJ42ECIvBjuGSLMHqS-50" target="vaaJ42ECIvBjuGSLMHqS-65">
          <mxGeometry width="50" height="50" relative="1" as="geometry">
            <mxPoint x="500" y="-1890" as="sourcePoint" />
            <mxPoint x="550" y="-1940" as="targetPoint" />
          </mxGeometry>
        </mxCell>
        <mxCell id="vaaJ42ECIvBjuGSLMHqS-71" value="" style="endArrow=none;html=1;rounded=0;exitX=0;exitY=0;exitDx=0;exitDy=0;" edge="1" parent="1" source="vaaJ42ECIvBjuGSLMHqS-50" target="vaaJ42ECIvBjuGSLMHqS-66">
          <mxGeometry width="50" height="50" relative="1" as="geometry">
            <mxPoint x="500" y="-1890" as="sourcePoint" />
            <mxPoint x="550" y="-1940" as="targetPoint" />
          </mxGeometry>
        </mxCell>
        <mxCell id="vaaJ42ECIvBjuGSLMHqS-72" value="" style="endArrow=none;html=1;rounded=0;entryX=1;entryY=0.5;entryDx=0;entryDy=0;exitX=0.333;exitY=-0.017;exitDx=0;exitDy=0;exitPerimeter=0;" edge="1" parent="1" source="vaaJ42ECIvBjuGSLMHqS-50" target="vaaJ42ECIvBjuGSLMHqS-68">
          <mxGeometry width="50" height="50" relative="1" as="geometry">
            <mxPoint x="500" y="-1890" as="sourcePoint" />
            <mxPoint x="550" y="-1940" as="targetPoint" />
          </mxGeometry>
        </mxCell>
        <mxCell id="vaaJ42ECIvBjuGSLMHqS-73" value="código" style="ellipse;whiteSpace=wrap;html=1;" vertex="1" parent="1">
          <mxGeometry x="710" y="-1803" width="80" height="50" as="geometry" />
        </mxCell>
        <mxCell id="vaaJ42ECIvBjuGSLMHqS-75" value="nombre" style="ellipse;whiteSpace=wrap;html=1;" vertex="1" parent="1">
          <mxGeometry x="800" y="-1798" width="70" height="40" as="geometry" />
        </mxCell>
        <mxCell id="vaaJ42ECIvBjuGSLMHqS-76" value="" style="endArrow=none;html=1;rounded=0;entryX=0.675;entryY=1.017;entryDx=0;entryDy=0;entryPerimeter=0;exitX=0.3;exitY=0.025;exitDx=0;exitDy=0;exitPerimeter=0;" edge="1" parent="1" source="vaaJ42ECIvBjuGSLMHqS-75" target="vaaJ42ECIvBjuGSLMHqS-52">
          <mxGeometry width="50" height="50" relative="1" as="geometry">
            <mxPoint x="510" y="-1890" as="sourcePoint" />
            <mxPoint x="560" y="-1940" as="targetPoint" />
          </mxGeometry>
        </mxCell>
        <mxCell id="vaaJ42ECIvBjuGSLMHqS-77" value="" style="endArrow=none;html=1;rounded=0;entryX=0.417;entryY=1;entryDx=0;entryDy=0;entryPerimeter=0;exitX=0.65;exitY=0.08;exitDx=0;exitDy=0;exitPerimeter=0;" edge="1" parent="1" source="vaaJ42ECIvBjuGSLMHqS-73" target="vaaJ42ECIvBjuGSLMHqS-52">
          <mxGeometry width="50" height="50" relative="1" as="geometry">
            <mxPoint x="510" y="-1890" as="sourcePoint" />
            <mxPoint x="560" y="-1940" as="targetPoint" />
          </mxGeometry>
        </mxCell>
        <mxCell id="vaaJ42ECIvBjuGSLMHqS-78" value="nº expediente" style="ellipse;whiteSpace=wrap;html=1;" vertex="1" parent="1">
          <mxGeometry x="1220" y="-1782" width="110" height="50" as="geometry" />
        </mxCell>
        <mxCell id="vaaJ42ECIvBjuGSLMHqS-79" value="nombre" style="ellipse;whiteSpace=wrap;html=1;" vertex="1" parent="1">
          <mxGeometry x="1240" y="-1655" width="70" height="40" as="geometry" />
        </mxCell>
        <mxCell id="vaaJ42ECIvBjuGSLMHqS-80" value="apellidos" style="ellipse;whiteSpace=wrap;html=1;" vertex="1" parent="1">
          <mxGeometry x="1230" y="-1610" width="90" height="50" as="geometry" />
        </mxCell>
        <mxCell id="vaaJ42ECIvBjuGSLMHqS-81" value="fecha de nacimiento" style="ellipse;whiteSpace=wrap;html=1;" vertex="1" parent="1">
          <mxGeometry x="1225" y="-1722" width="100" height="60" as="geometry" />
        </mxCell>
        <mxCell id="vaaJ42ECIvBjuGSLMHqS-82" value="" style="endArrow=none;html=1;rounded=0;entryX=0.056;entryY=0.32;entryDx=0;entryDy=0;entryPerimeter=0;exitX=0.842;exitY=1.033;exitDx=0;exitDy=0;exitPerimeter=0;" edge="1" parent="1" source="vaaJ42ECIvBjuGSLMHqS-49" target="vaaJ42ECIvBjuGSLMHqS-80">
          <mxGeometry width="50" height="50" relative="1" as="geometry">
            <mxPoint x="510" y="-1622" as="sourcePoint" />
            <mxPoint x="560" y="-1672" as="targetPoint" />
          </mxGeometry>
        </mxCell>
        <mxCell id="vaaJ42ECIvBjuGSLMHqS-83" value="" style="endArrow=none;html=1;rounded=0;entryX=0;entryY=0.5;entryDx=0;entryDy=0;exitX=1;exitY=0.75;exitDx=0;exitDy=0;" edge="1" parent="1" source="vaaJ42ECIvBjuGSLMHqS-49" target="vaaJ42ECIvBjuGSLMHqS-79">
          <mxGeometry width="50" height="50" relative="1" as="geometry">
            <mxPoint x="510" y="-1622" as="sourcePoint" />
            <mxPoint x="560" y="-1672" as="targetPoint" />
          </mxGeometry>
        </mxCell>
        <mxCell id="vaaJ42ECIvBjuGSLMHqS-84" value="" style="endArrow=none;html=1;rounded=0;entryX=0;entryY=0.5;entryDx=0;entryDy=0;exitX=1.008;exitY=0.4;exitDx=0;exitDy=0;exitPerimeter=0;" edge="1" parent="1" source="vaaJ42ECIvBjuGSLMHqS-49" target="vaaJ42ECIvBjuGSLMHqS-81">
          <mxGeometry width="50" height="50" relative="1" as="geometry">
            <mxPoint x="510" y="-1622" as="sourcePoint" />
            <mxPoint x="560" y="-1672" as="targetPoint" />
          </mxGeometry>
        </mxCell>
        <mxCell id="vaaJ42ECIvBjuGSLMHqS-85" value="" style="endArrow=none;html=1;rounded=0;entryX=0.064;entryY=0.76;entryDx=0;entryDy=0;entryPerimeter=0;" edge="1" parent="1" source="vaaJ42ECIvBjuGSLMHqS-49" target="vaaJ42ECIvBjuGSLMHqS-78">
          <mxGeometry width="50" height="50" relative="1" as="geometry">
            <mxPoint x="510" y="-1622" as="sourcePoint" />
            <mxPoint x="560" y="-1672" as="targetPoint" />
          </mxGeometry>
        </mxCell>
        <mxCell id="vaaJ42ECIvBjuGSLMHqS-97" style="edgeStyle=orthogonalEdgeStyle;rounded=0;orthogonalLoop=1;jettySize=auto;html=1;endArrow=none;endFill=0;" edge="1" parent="1" source="vaaJ42ECIvBjuGSLMHqS-86" target="vaaJ42ECIvBjuGSLMHqS-53">
          <mxGeometry relative="1" as="geometry" />
        </mxCell>
        <mxCell id="vaaJ42ECIvBjuGSLMHqS-86" value="Cursos" style="rounded=0;whiteSpace=wrap;html=1;" vertex="1" parent="1">
          <mxGeometry x="1000" y="-1890" width="120" height="60" as="geometry" />
        </mxCell>
        <mxCell id="vaaJ42ECIvBjuGSLMHqS-92" style="edgeStyle=orthogonalEdgeStyle;rounded=0;orthogonalLoop=1;jettySize=auto;html=1;entryX=0;entryY=0.5;entryDx=0;entryDy=0;endArrow=none;endFill=0;" edge="1" parent="1" source="vaaJ42ECIvBjuGSLMHqS-90" target="vaaJ42ECIvBjuGSLMHqS-86">
          <mxGeometry relative="1" as="geometry" />
        </mxCell>
        <mxCell id="vaaJ42ECIvBjuGSLMHqS-90" value="se imparten a" style="rhombus;whiteSpace=wrap;html=1;" vertex="1" parent="1">
          <mxGeometry x="890" y="-1900" width="80" height="80" as="geometry" />
        </mxCell>
        <mxCell id="vaaJ42ECIvBjuGSLMHqS-94" value="1:n" style="text;html=1;align=center;verticalAlign=middle;resizable=0;points=[];autosize=1;strokeColor=none;fillColor=none;" vertex="1" parent="1">
          <mxGeometry x="860" y="-1915" width="40" height="30" as="geometry" />
        </mxCell>
        <mxCell id="vaaJ42ECIvBjuGSLMHqS-95" value="1:n" style="text;html=1;align=center;verticalAlign=middle;resizable=0;points=[];autosize=1;strokeColor=none;fillColor=none;" vertex="1" parent="1">
          <mxGeometry x="955" y="-1915" width="40" height="30" as="geometry" />
        </mxCell>
        <mxCell id="vaaJ42ECIvBjuGSLMHqS-96" value="1:n" style="text;html=1;align=center;verticalAlign=middle;resizable=0;points=[];autosize=1;strokeColor=none;fillColor=none;" vertex="1" parent="1">
          <mxGeometry x="910" y="-1942" width="40" height="30" as="geometry" />
        </mxCell>
        <mxCell id="vaaJ42ECIvBjuGSLMHqS-99" value="1:n" style="text;html=1;align=center;verticalAlign=middle;resizable=0;points=[];autosize=1;strokeColor=none;fillColor=none;" vertex="1" parent="1">
          <mxGeometry x="1100" y="-1768.5" width="40" height="30" as="geometry" />
        </mxCell>
        <mxCell id="vaaJ42ECIvBjuGSLMHqS-100" value="es delegado" style="rhombus;whiteSpace=wrap;html=1;" vertex="1" parent="1">
          <mxGeometry x="910" y="-1580" width="80" height="80" as="geometry" />
        </mxCell>
        <mxCell id="vaaJ42ECIvBjuGSLMHqS-107" value="1:1" style="text;html=1;align=center;verticalAlign=middle;resizable=0;points=[];autosize=1;strokeColor=none;fillColor=none;" vertex="1" parent="1">
          <mxGeometry x="870" y="-1555" width="40" height="30" as="geometry" />
        </mxCell>
        <mxCell id="vaaJ42ECIvBjuGSLMHqS-108" value="1:1" style="text;html=1;align=center;verticalAlign=middle;resizable=0;points=[];autosize=1;strokeColor=none;fillColor=none;" vertex="1" parent="1">
          <mxGeometry x="910" y="-1630" width="40" height="30" as="geometry" />
        </mxCell>
        <mxCell id="vaaJ42ECIvBjuGSLMHqS-109" value="1:1" style="text;html=1;align=center;verticalAlign=middle;resizable=0;points=[];autosize=1;strokeColor=none;fillColor=none;" vertex="1" parent="1">
          <mxGeometry x="1010" y="-1530" width="40" height="30" as="geometry" />
        </mxCell>
        <mxCell id="vaaJ42ECIvBjuGSLMHqS-110" value="&lt;p align=&quot;center&quot;&gt;&lt;b&gt;EJERCICIO 3&lt;/b&gt;&lt;/p&gt;&lt;div align=&quot;center&quot;&gt;&lt;br&gt;&lt;br&gt;&lt;/div&gt;&lt;p align=&quot;center&quot;&gt;&lt;span lang=&quot;ES-TRAD&quot;&gt;A partir del siguiente supuesto diseñar&lt;br&gt;el modelo entidad-relación:&lt;/span&gt;&lt;/p&gt;&lt;p id=&quot;yui_3_17_2_1_1695321423894_30&quot; align=&quot;center&quot;&gt;&lt;i id=&quot;yui_3_17_2_1_1695321423894_29&quot;&gt;&lt;span id=&quot;yui_3_17_2_1_1695321423894_28&quot; lang=&quot;ES-TRAD&quot;&gt;“Se desea diseñar una base de datos para almacenar y gestionar la información empleada&lt;br&gt;por una empresa dedicada a la venta de automóviles, teniendo en cuenta los&lt;br&gt;siguientes aspectos:&lt;/span&gt;&lt;/i&gt;&lt;/p&gt;&lt;p align=&quot;center&quot;&gt;&lt;i&gt;&lt;span lang=&quot;ES-TRAD&quot;&gt;La empresa dispone de una serie de coches para su venta. Se necesita conocer la&lt;br&gt;matrícula, marca y modelo, el color y el precio de venta de cada coche.&lt;/span&gt;&lt;/i&gt;&lt;/p&gt;&lt;p align=&quot;center&quot;&gt;&lt;i&gt;&lt;span lang=&quot;ES-TRAD&quot;&gt;Los datos que interesa conocer de cada cliente son el NIF, nombre, dirección, ciudad y&lt;br&gt;número de teléfono: además, los clientes se diferencian por un código interno&lt;br&gt;de la empresa que se incrementa automáticamente cuando un cliente se da de alta&lt;br&gt;en ella. Un cliente puede comprar tantos coches como desee a la empresa. Un&lt;br&gt;coche determinado solo puede ser comprado por un único cliente.&lt;/span&gt;&lt;/i&gt;&lt;/p&gt;&lt;p id=&quot;yui_3_17_2_1_1695321423894_27&quot; align=&quot;center&quot;&gt;&lt;i id=&quot;yui_3_17_2_1_1695321423894_26&quot;&gt;&lt;span id=&quot;yui_3_17_2_1_1695321423894_25&quot; lang=&quot;ES-TRAD&quot;&gt;El concesionario también se encarga de llevar a cabo las revisiones&lt;br&gt;que se realizan a cada coche. Cada revisión tiene asociado un código que se&lt;br&gt;incrementa automáticamente por cada&lt;br&gt;revisión que se haga. De cada revisión se desea saber si se ha hecho cambio de filtro,&lt;br&gt;si se ha hecho cambio de aceite, si se ha hecho cambio de frenos u otros. Los&lt;br&gt;coches pueden pasar varias revisiones en el concesionario”.&lt;/span&gt;&lt;/i&gt;&lt;/p&gt;" style="text;html=1;strokeColor=none;fillColor=none;align=center;verticalAlign=middle;whiteSpace=wrap;rounded=0;" vertex="1" parent="1">
          <mxGeometry x="-295" y="-1530" width="750" height="640" as="geometry" />
        </mxCell>
        <mxCell id="vaaJ42ECIvBjuGSLMHqS-115" style="edgeStyle=orthogonalEdgeStyle;rounded=0;orthogonalLoop=1;jettySize=auto;html=1;entryX=0;entryY=0.5;entryDx=0;entryDy=0;endArrow=none;endFill=0;" edge="1" parent="1" source="vaaJ42ECIvBjuGSLMHqS-112" target="vaaJ42ECIvBjuGSLMHqS-114">
          <mxGeometry relative="1" as="geometry" />
        </mxCell>
        <mxCell id="vaaJ42ECIvBjuGSLMHqS-112" value="Empresa" style="rounded=0;whiteSpace=wrap;html=1;" vertex="1" parent="1">
          <mxGeometry x="350" y="-1230" width="120" height="60" as="geometry" />
        </mxCell>
        <mxCell id="vaaJ42ECIvBjuGSLMHqS-120" style="edgeStyle=orthogonalEdgeStyle;rounded=0;orthogonalLoop=1;jettySize=auto;html=1;endArrow=none;endFill=0;" edge="1" parent="1" source="vaaJ42ECIvBjuGSLMHqS-113" target="vaaJ42ECIvBjuGSLMHqS-119">
          <mxGeometry relative="1" as="geometry" />
        </mxCell>
        <mxCell id="vaaJ42ECIvBjuGSLMHqS-113" value="Coches" style="rounded=0;whiteSpace=wrap;html=1;" vertex="1" parent="1">
          <mxGeometry x="660" y="-1230" width="120" height="60" as="geometry" />
        </mxCell>
        <mxCell id="vaaJ42ECIvBjuGSLMHqS-116" style="edgeStyle=orthogonalEdgeStyle;rounded=0;orthogonalLoop=1;jettySize=auto;html=1;entryX=0;entryY=0.5;entryDx=0;entryDy=0;endArrow=none;endFill=0;" edge="1" parent="1" source="vaaJ42ECIvBjuGSLMHqS-114" target="vaaJ42ECIvBjuGSLMHqS-113">
          <mxGeometry relative="1" as="geometry" />
        </mxCell>
        <mxCell id="vaaJ42ECIvBjuGSLMHqS-114" value="dispone" style="rhombus;whiteSpace=wrap;html=1;" vertex="1" parent="1">
          <mxGeometry x="520" y="-1240" width="80" height="80" as="geometry" />
        </mxCell>
        <mxCell id="vaaJ42ECIvBjuGSLMHqS-118" value="Cliente" style="whiteSpace=wrap;html=1;" vertex="1" parent="1">
          <mxGeometry x="995" y="-1230" width="120" height="60" as="geometry" />
        </mxCell>
        <mxCell id="vaaJ42ECIvBjuGSLMHqS-121" style="edgeStyle=orthogonalEdgeStyle;rounded=0;orthogonalLoop=1;jettySize=auto;html=1;endArrow=none;endFill=0;" edge="1" parent="1" source="vaaJ42ECIvBjuGSLMHqS-119" target="vaaJ42ECIvBjuGSLMHqS-118">
          <mxGeometry relative="1" as="geometry" />
        </mxCell>
        <mxCell id="vaaJ42ECIvBjuGSLMHqS-119" value="compra" style="rhombus;whiteSpace=wrap;html=1;" vertex="1" parent="1">
          <mxGeometry x="840" y="-1240" width="80" height="80" as="geometry" />
        </mxCell>
        <mxCell id="vaaJ42ECIvBjuGSLMHqS-124" style="edgeStyle=orthogonalEdgeStyle;rounded=0;orthogonalLoop=1;jettySize=auto;html=1;entryX=0.5;entryY=0;entryDx=0;entryDy=0;endArrow=none;endFill=0;" edge="1" parent="1" source="vaaJ42ECIvBjuGSLMHqS-122" target="vaaJ42ECIvBjuGSLMHqS-123">
          <mxGeometry relative="1" as="geometry" />
        </mxCell>
        <mxCell id="vaaJ42ECIvBjuGSLMHqS-122" value="Consecionario" style="whiteSpace=wrap;html=1;" vertex="1" parent="1">
          <mxGeometry x="660" y="-1440" width="120" height="60" as="geometry" />
        </mxCell>
        <mxCell id="vaaJ42ECIvBjuGSLMHqS-125" style="edgeStyle=orthogonalEdgeStyle;rounded=0;orthogonalLoop=1;jettySize=auto;html=1;entryX=0.5;entryY=0;entryDx=0;entryDy=0;endArrow=none;endFill=0;" edge="1" parent="1" source="vaaJ42ECIvBjuGSLMHqS-123" target="vaaJ42ECIvBjuGSLMHqS-113">
          <mxGeometry relative="1" as="geometry" />
        </mxCell>
        <mxCell id="vaaJ42ECIvBjuGSLMHqS-123" value="revisa" style="rhombus;whiteSpace=wrap;html=1;" vertex="1" parent="1">
          <mxGeometry x="680" y="-1340" width="80" height="80" as="geometry" />
        </mxCell>
        <mxCell id="vaaJ42ECIvBjuGSLMHqS-127" value="precio" style="ellipse;whiteSpace=wrap;html=1;" vertex="1" parent="1">
          <mxGeometry x="795" y="-1100" width="70" height="40" as="geometry" />
        </mxCell>
        <mxCell id="vaaJ42ECIvBjuGSLMHqS-128" value="modelo" style="ellipse;whiteSpace=wrap;html=1;" vertex="1" parent="1">
          <mxGeometry x="660" y="-1100" width="65" height="40" as="geometry" />
        </mxCell>
        <mxCell id="vaaJ42ECIvBjuGSLMHqS-129" value="marca" style="ellipse;whiteSpace=wrap;html=1;" vertex="1" parent="1">
          <mxGeometry x="590" y="-1100" width="70" height="40" as="geometry" />
        </mxCell>
        <mxCell id="vaaJ42ECIvBjuGSLMHqS-130" value="matricula" style="ellipse;whiteSpace=wrap;html=1;" vertex="1" parent="1">
          <mxGeometry x="725" y="-1100" width="70" height="40" as="geometry" />
        </mxCell>
        <mxCell id="vaaJ42ECIvBjuGSLMHqS-131" value="" style="endArrow=none;html=1;rounded=0;entryX=0.825;entryY=0.967;entryDx=0;entryDy=0;entryPerimeter=0;exitX=0.214;exitY=0;exitDx=0;exitDy=0;exitPerimeter=0;" edge="1" parent="1" source="vaaJ42ECIvBjuGSLMHqS-127" target="vaaJ42ECIvBjuGSLMHqS-113">
          <mxGeometry width="50" height="50" relative="1" as="geometry">
            <mxPoint x="380" y="-1080" as="sourcePoint" />
            <mxPoint x="430" y="-1130" as="targetPoint" />
          </mxGeometry>
        </mxCell>
        <mxCell id="vaaJ42ECIvBjuGSLMHqS-132" value="" style="endArrow=none;html=1;rounded=0;entryX=0.583;entryY=1;entryDx=0;entryDy=0;entryPerimeter=0;" edge="1" parent="1" source="vaaJ42ECIvBjuGSLMHqS-130" target="vaaJ42ECIvBjuGSLMHqS-113">
          <mxGeometry width="50" height="50" relative="1" as="geometry">
            <mxPoint x="380" y="-1080" as="sourcePoint" />
            <mxPoint x="430" y="-1130" as="targetPoint" />
          </mxGeometry>
        </mxCell>
        <mxCell id="vaaJ42ECIvBjuGSLMHqS-133" value="" style="endArrow=none;html=1;rounded=0;entryX=0.417;entryY=1;entryDx=0;entryDy=0;entryPerimeter=0;exitX=0.5;exitY=0;exitDx=0;exitDy=0;" edge="1" parent="1" source="vaaJ42ECIvBjuGSLMHqS-128" target="vaaJ42ECIvBjuGSLMHqS-113">
          <mxGeometry width="50" height="50" relative="1" as="geometry">
            <mxPoint x="380" y="-1080" as="sourcePoint" />
            <mxPoint x="430" y="-1130" as="targetPoint" />
          </mxGeometry>
        </mxCell>
        <mxCell id="vaaJ42ECIvBjuGSLMHqS-134" value="" style="endArrow=none;html=1;rounded=0;entryX=0.167;entryY=1;entryDx=0;entryDy=0;entryPerimeter=0;exitX=0.5;exitY=0;exitDx=0;exitDy=0;" edge="1" parent="1" source="vaaJ42ECIvBjuGSLMHqS-129" target="vaaJ42ECIvBjuGSLMHqS-113">
          <mxGeometry width="50" height="50" relative="1" as="geometry">
            <mxPoint x="380" y="-1080" as="sourcePoint" />
            <mxPoint x="430" y="-1130" as="targetPoint" />
          </mxGeometry>
        </mxCell>
        <mxCell id="vaaJ42ECIvBjuGSLMHqS-135" value="telefono" style="ellipse;whiteSpace=wrap;html=1;" vertex="1" parent="1">
          <mxGeometry x="1140" y="-1300" width="70" height="50" as="geometry" />
        </mxCell>
        <mxCell id="vaaJ42ECIvBjuGSLMHqS-136" value="NIF" style="ellipse;whiteSpace=wrap;html=1;" vertex="1" parent="1">
          <mxGeometry x="1145" y="-1120" width="60" height="40" as="geometry" />
        </mxCell>
        <mxCell id="vaaJ42ECIvBjuGSLMHqS-137" value="ciudad" style="ellipse;whiteSpace=wrap;html=1;" vertex="1" parent="1">
          <mxGeometry x="1140" y="-1240" width="70" height="50" as="geometry" />
        </mxCell>
        <mxCell id="vaaJ42ECIvBjuGSLMHqS-138" value="dirección" style="ellipse;whiteSpace=wrap;html=1;" vertex="1" parent="1">
          <mxGeometry x="1140" y="-1360" width="70" height="50" as="geometry" />
        </mxCell>
        <mxCell id="vaaJ42ECIvBjuGSLMHqS-139" value="nombre" style="ellipse;whiteSpace=wrap;html=1;" vertex="1" parent="1">
          <mxGeometry x="1140" y="-1180" width="70" height="50" as="geometry" />
        </mxCell>
        <mxCell id="vaaJ42ECIvBjuGSLMHqS-140" value="" style="endArrow=none;html=1;rounded=0;entryX=0;entryY=0;entryDx=0;entryDy=0;exitX=1;exitY=1;exitDx=0;exitDy=0;" edge="1" parent="1" source="vaaJ42ECIvBjuGSLMHqS-118" target="vaaJ42ECIvBjuGSLMHqS-136">
          <mxGeometry width="50" height="50" relative="1" as="geometry">
            <mxPoint x="990" y="-1080" as="sourcePoint" />
            <mxPoint x="1040" y="-1130" as="targetPoint" />
          </mxGeometry>
        </mxCell>
        <mxCell id="vaaJ42ECIvBjuGSLMHqS-141" value="" style="endArrow=none;html=1;rounded=0;entryX=0;entryY=0;entryDx=0;entryDy=0;exitX=1;exitY=0.75;exitDx=0;exitDy=0;" edge="1" parent="1" source="vaaJ42ECIvBjuGSLMHqS-118" target="vaaJ42ECIvBjuGSLMHqS-139">
          <mxGeometry width="50" height="50" relative="1" as="geometry">
            <mxPoint x="990" y="-1080" as="sourcePoint" />
            <mxPoint x="1040" y="-1130" as="targetPoint" />
          </mxGeometry>
        </mxCell>
        <mxCell id="vaaJ42ECIvBjuGSLMHqS-142" value="" style="endArrow=none;html=1;rounded=0;entryX=0.014;entryY=0.68;entryDx=0;entryDy=0;entryPerimeter=0;exitX=1;exitY=0.5;exitDx=0;exitDy=0;" edge="1" parent="1" source="vaaJ42ECIvBjuGSLMHqS-118" target="vaaJ42ECIvBjuGSLMHqS-137">
          <mxGeometry width="50" height="50" relative="1" as="geometry">
            <mxPoint x="990" y="-1080" as="sourcePoint" />
            <mxPoint x="1040" y="-1130" as="targetPoint" />
          </mxGeometry>
        </mxCell>
        <mxCell id="vaaJ42ECIvBjuGSLMHqS-143" value="" style="endArrow=none;html=1;rounded=0;entryX=0;entryY=1;entryDx=0;entryDy=0;exitX=1;exitY=0.25;exitDx=0;exitDy=0;" edge="1" parent="1" source="vaaJ42ECIvBjuGSLMHqS-118" target="vaaJ42ECIvBjuGSLMHqS-135">
          <mxGeometry width="50" height="50" relative="1" as="geometry">
            <mxPoint x="990" y="-1080" as="sourcePoint" />
            <mxPoint x="1040" y="-1130" as="targetPoint" />
          </mxGeometry>
        </mxCell>
        <mxCell id="vaaJ42ECIvBjuGSLMHqS-144" value="" style="endArrow=none;html=1;rounded=0;entryX=0;entryY=1;entryDx=0;entryDy=0;exitX=0.892;exitY=0.033;exitDx=0;exitDy=0;exitPerimeter=0;" edge="1" parent="1" source="vaaJ42ECIvBjuGSLMHqS-118" target="vaaJ42ECIvBjuGSLMHqS-138">
          <mxGeometry width="50" height="50" relative="1" as="geometry">
            <mxPoint x="990" y="-1080" as="sourcePoint" />
            <mxPoint x="1040" y="-1130" as="targetPoint" />
          </mxGeometry>
        </mxCell>
        <mxCell id="vaaJ42ECIvBjuGSLMHqS-145" value="codigo" style="ellipse;whiteSpace=wrap;html=1;" vertex="1" parent="1">
          <mxGeometry x="825" y="-1450" width="80" height="40" as="geometry" />
        </mxCell>
        <mxCell id="vaaJ42ECIvBjuGSLMHqS-147" value="datos revisión" style="ellipse;whiteSpace=wrap;html=1;" vertex="1" parent="1">
          <mxGeometry x="815" y="-1410" width="100" height="50" as="geometry" />
        </mxCell>
        <mxCell id="vaaJ42ECIvBjuGSLMHqS-148" value="" style="endArrow=none;html=1;rounded=0;entryX=0.03;entryY=0.36;entryDx=0;entryDy=0;entryPerimeter=0;exitX=1;exitY=0.75;exitDx=0;exitDy=0;" edge="1" parent="1" source="vaaJ42ECIvBjuGSLMHqS-122" target="vaaJ42ECIvBjuGSLMHqS-147">
          <mxGeometry width="50" height="50" relative="1" as="geometry">
            <mxPoint x="360" y="-1080" as="sourcePoint" />
            <mxPoint x="410" y="-1130" as="targetPoint" />
          </mxGeometry>
        </mxCell>
        <mxCell id="vaaJ42ECIvBjuGSLMHqS-149" value="" style="endArrow=none;html=1;rounded=0;entryX=0;entryY=0.5;entryDx=0;entryDy=0;exitX=1;exitY=0.25;exitDx=0;exitDy=0;" edge="1" parent="1" source="vaaJ42ECIvBjuGSLMHqS-122" target="vaaJ42ECIvBjuGSLMHqS-145">
          <mxGeometry width="50" height="50" relative="1" as="geometry">
            <mxPoint x="790" y="-1420" as="sourcePoint" />
            <mxPoint x="410" y="-1130" as="targetPoint" />
          </mxGeometry>
        </mxCell>
        <mxCell id="vaaJ42ECIvBjuGSLMHqS-150" value="0:n" style="text;html=1;align=center;verticalAlign=middle;resizable=0;points=[];autosize=1;strokeColor=none;fillColor=none;" vertex="1" parent="1">
          <mxGeometry x="480" y="-1260" width="40" height="30" as="geometry" />
        </mxCell>
        <mxCell id="vaaJ42ECIvBjuGSLMHqS-151" value="0:n" style="text;html=1;align=center;verticalAlign=middle;resizable=0;points=[];autosize=1;strokeColor=none;fillColor=none;" vertex="1" parent="1">
          <mxGeometry x="600" y="-1260" width="40" height="30" as="geometry" />
        </mxCell>
        <mxCell id="vaaJ42ECIvBjuGSLMHqS-152" value="0:n" style="text;html=1;align=center;verticalAlign=middle;resizable=0;points=[];autosize=1;strokeColor=none;fillColor=none;" vertex="1" parent="1">
          <mxGeometry x="540" y="-1280" width="40" height="30" as="geometry" />
        </mxCell>
        <mxCell id="vaaJ42ECIvBjuGSLMHqS-153" value="1:n" style="text;html=1;align=center;verticalAlign=middle;resizable=0;points=[];autosize=1;strokeColor=none;fillColor=none;" vertex="1" parent="1">
          <mxGeometry x="800" y="-1250" width="40" height="30" as="geometry" />
        </mxCell>
        <mxCell id="vaaJ42ECIvBjuGSLMHqS-154" value="1:1" style="text;html=1;align=center;verticalAlign=middle;resizable=0;points=[];autosize=1;strokeColor=none;fillColor=none;" vertex="1" parent="1">
          <mxGeometry x="930" y="-1250" width="40" height="30" as="geometry" />
        </mxCell>
        <mxCell id="vaaJ42ECIvBjuGSLMHqS-155" value="1:n" style="text;html=1;align=center;verticalAlign=middle;resizable=0;points=[];autosize=1;strokeColor=none;fillColor=none;" vertex="1" parent="1">
          <mxGeometry x="860" y="-1280" width="40" height="30" as="geometry" />
        </mxCell>
        <mxCell id="vaaJ42ECIvBjuGSLMHqS-156" value="0:n" style="text;html=1;align=center;verticalAlign=middle;resizable=0;points=[];autosize=1;strokeColor=none;fillColor=none;" vertex="1" parent="1">
          <mxGeometry x="760" y="-1315" width="40" height="30" as="geometry" />
        </mxCell>
        <mxCell id="vaaJ42ECIvBjuGSLMHqS-157" value="0:n" style="text;html=1;align=center;verticalAlign=middle;resizable=0;points=[];autosize=1;strokeColor=none;fillColor=none;" vertex="1" parent="1">
          <mxGeometry x="725" y="-1370" width="40" height="30" as="geometry" />
        </mxCell>
        <mxCell id="vaaJ42ECIvBjuGSLMHqS-158" value="0:n" style="text;html=1;align=center;verticalAlign=middle;resizable=0;points=[];autosize=1;strokeColor=none;fillColor=none;" vertex="1" parent="1">
          <mxGeometry x="725" y="-1270" width="40" height="30" as="geometry" />
        </mxCell>
      </root>
    </mxGraphModel>
  </diagram>
</mxfile>
